<?xml version="1.0" standalone="no"?>
<!DOCTYPE svg PUBLIC "-//W3C//DTD SVG 20010904//EN"
 "http://www.w3.org/TR/2001/REC-SVG-20010904/DTD/svg10.dtd">
<svg version="1.0" xmlns="http://www.w3.org/2000/svg"
 width="500.000000pt" height="500.000000pt" viewBox="0 0 500.000000 500.000000"
 preserveAspectRatio="xMidYMid meet">
<metadata>
Created by potrace 1.14, written by Peter Selinger 2001-2017
</metadata>
<g transform="translate(0.000000,500.000000) scale(0.100000,-0.100000)"
fill="#000000" stroke="none">
<path d="M420 2558 c0 -1725 1 -1818 18 -1819 25 -1 893 -1 919 0 l23 1 2
1057 c2 780 6 1057 14 1060 7 2 19 -15 27 -39 19 -53 44 -119 337 -873 128
-330 243 -627 256 -660 12 -33 63 -163 112 -290 l89 -230 292 0 291 0 30 76
c42 109 293 753 350 899 28 69 135 343 239 610 130 335 194 486 205 488 15 3
16 -87 16 -1047 0 -834 3 -1051 13 -1052 14 -1 894 -1 920 0 16 1 17 92 15
1818 l-3 1818 -605 0 -605 0 -88 -215 c-49 -118 -158 -386 -244 -595 -85 -209
-164 -399 -174 -422 -10 -23 -19 -45 -19 -48 0 -4 -7 -21 -15 -38 -8 -18 -52
-124 -98 -237 -214 -524 -207 -509 -229 -505 -12 3 -22 6 -23 7 -1 2 -41 100
-89 218 -49 118 -94 229 -101 245 -7 17 -54 131 -105 255 -103 252 -157 385
-171 415 -4 11 -44 108 -87 215 -44 107 -82 202 -85 210 -4 8 -51 123 -105
255 l-98 240 -612 0 -612 0 0 -1817z"/>
</g>
</svg>
