<svg id="visual" viewBox="0 0 900 900" width="900" height="900" xmlns="http://www.w3.org/2000/svg" xmlns:xlink="http://www.w3.org/1999/xlink" version="1.1"><rect x="0" y="0" width="900" height="900" fill="#00000000"></rect><defs><linearGradient id="grad1_0" x1="0%" y1="0%" x2="100%" y2="100%"><stop offset="30%" stop-color="#00000000" stop-opacity="1"></stop><stop offset="70%" stop-color="#00000000" stop-opacity="1"></stop></linearGradient></defs><defs><linearGradient id="grad2_0" x1="0%" y1="0%" x2="100%" y2="100%"><stop offset="30%" stop-color="#00000000" stop-opacity="1"></stop><stop offset="70%" stop-color="#00000000" stop-opacity="1"></stop></linearGradient></defs><g transform="translate(900, 0)"><path d="M0 572.8C-63.1 539.2 -126.1 505.6 -200.5 484.1C-274.9 462.6 -360.7 453.2 -405 405C-449.3 356.8 -452 269.9 -473 195.9C-494.1 122 -533.4 61 -572.8 0L0 0Z" fill="#fa3c81"></path></g><g transform="translate(0, 900)"><path d="M0 -572.8C68.2 -549.9 136.4 -527.1 208.6 -503.5C280.8 -479.9 357 -455.6 405 -405C453 -354.4 472.9 -277.4 496.1 -205.5C519.4 -133.6 546.1 -66.8 572.8 0L0 0Z" fill="#fa3c81"></path></g></svg>