<svg id="visual" viewBox="0 0 900 600" width="900" height="600" xmlns="http://www.w3.org/2000/svg" xmlns:xlink="http://www.w3.org/1999/xlink" version="1.1"><path d="M674 600L690.3 575C706.7 550 739.3 500 742.8 450C746.3 400 720.7 350 720.7 300C720.7 250 746.3 200 746.2 150C746 100 720 50 707 25L694 0L900 0L900 25C900 50 900 100 900 150C900 200 900 250 900 300C900 350 900 400 900 450C900 500 900 550 900 575L900 600Z" fill="#f472b6"></path><path d="M718 600L725.8 575C733.7 550 749.3 500 760.5 450C771.7 400 778.3 350 769.5 300C760.7 250 736.3 200 724.7 150C713 100 714 50 714.5 25L715 0L900 0L900 25C900 50 900 100 900 150C900 200 900 250 900 300C900 350 900 400 900 450C900 500 900 550 900 575L900 600Z" fill="#f6548b"></path><path d="M756 600L753.8 575C751.7 550 747.3 500 762.5 450C777.7 400 812.3 350 825.3 300C838.3 250 829.7 200 828.2 150C826.7 100 832.3 50 835.2 25L838 0L900 0L900 25C900 50 900 100 900 150C900 200 900 250 900 300C900 350 900 400 900 450C900 500 900 550 900 575L900 600Z" fill="#ef385a"></path><path d="M835 600L831.7 575C828.3 550 821.7 500 816.2 450C810.7 400 806.3 350 814.5 300C822.7 250 843.3 200 846.8 150C850.3 100 836.7 50 829.8 25L823 0L900 0L900 25C900 50 900 100 900 150C900 200 900 250 900 300C900 350 900 400 900 450C900 500 900 550 900 575L900 600Z" fill="#dc2626"></path></svg>